<svg width="22" height="24" viewBox="0 0 22 24" fill="none" xmlns="http://www.w3.org/2000/svg">
<path d="M3.55801 11.1749C3.55801 8.44945 4.64071 5.8356 6.56791 3.90839C8.49512 1.98118 11.109 0.898489 13.8345 0.898489H21.0672C21.0672 3.62397 19.9845 6.23782 18.0573 8.16503C16.1301 10.0922 13.5162 11.1749 10.7908 11.1749H3.55801Z" fill="#69AA72"/>
<path d="M18.3417 12.2142C17.9764 12.2148 17.6262 12.3603 17.3682 12.6188C17.1101 12.8773 16.9651 13.2276 16.9651 13.5929C16.9663 14.4904 16.7949 15.3797 16.4603 16.2124C16.13 17.036 15.6414 17.7869 15.0222 18.4225C14.4145 19.0565 13.6852 19.5615 12.8779 19.9073C12.0828 20.2473 11.227 20.4226 10.3623 20.4226C9.49756 20.4226 8.64181 20.2473 7.84674 19.9073C7.04093 19.561 6.31309 19.0561 5.70661 18.4225C5.08825 17.7846 4.59983 17.0325 4.26855 16.2082C3.93226 15.3772 3.75872 14.4894 3.75738 13.5929C3.75637 13.5218 3.74999 13.4509 3.73829 13.3808H5.73419C5.8007 14.0177 5.99855 14.6339 6.31524 15.1905C6.63192 15.7471 7.06057 16.232 7.57411 16.6145C8.08765 16.9971 8.67493 17.269 9.29887 17.4131C9.92281 17.5573 10.5699 17.5705 11.1992 17.4519C11.8284 17.3333 12.4263 17.0856 12.955 16.7243C13.4838 16.363 13.9318 15.896 14.2709 15.3528C14.6101 14.8096 14.8329 14.202 14.9253 13.5683C15.0178 12.9346 14.9778 12.2887 14.808 11.6713C16.1794 10.7888 17.331 9.60468 18.175 8.20929C19.019 6.8139 19.5331 5.24412 19.6779 3.61979L19.8094 2.12021H11.8046C9.12968 2.1203 6.55171 3.12184 4.5783 4.92762C2.60489 6.73341 1.37904 9.21259 1.14213 11.877L1.01063 13.3787H1.02972C1.01802 13.4488 1.01164 13.5197 1.01063 13.5908C1.00899 14.8431 1.2488 16.0839 1.71693 17.2453C2.18079 18.4023 2.86678 19.4573 3.73617 20.3506C4.59854 21.2412 5.63057 21.9502 6.77137 22.4355C7.907 22.9212 9.1293 23.1716 10.3644 23.1716C11.5995 23.1716 12.8218 22.9212 13.9575 22.4355C15.0983 21.9502 16.1303 21.2412 16.9927 20.3506C17.862 19.4564 18.5479 18.4008 19.0119 17.2432C19.48 16.0832 19.7198 14.8438 19.7182 13.5929C19.7185 13.412 19.6831 13.2327 19.614 13.0655C19.545 12.8982 19.4436 12.7462 19.3158 12.6182C19.1879 12.4901 19.0361 12.3885 18.8689 12.3192C18.7018 12.2499 18.5226 12.2142 18.3417 12.2142V12.2142ZM11.8046 4.87756H16.6491C16.1057 6.71246 14.9237 8.2924 13.3169 9.33175C12.7954 8.89659 12.1845 8.58154 11.5276 8.40897C10.8707 8.2364 10.1838 8.21053 9.5158 8.33321C8.84777 8.45588 8.21492 8.72409 7.66217 9.1188C7.10943 9.51351 6.65033 10.025 6.31747 10.6171H4.18158C4.66844 8.96925 5.67235 7.52167 7.04503 6.48815C8.41771 5.45463 10.0864 4.88997 11.8046 4.87756V4.87756Z" fill="#193550"/>
<path d="M13.0751 10.4135C13.7053 10.4135 14.2162 9.93107 14.2162 9.33599C14.2162 8.74091 13.7053 8.2585 13.0751 8.2585C12.4449 8.2585 11.934 8.74091 11.934 9.33599C11.934 9.93107 12.4449 10.4135 13.0751 10.4135Z" fill="#EEEED4"/>
<path d="M1.32028 13.6947C1.40466 13.6947 1.48558 13.6612 1.54525 13.6015C1.60491 13.5419 1.63843 13.4609 1.63843 13.3766C1.63843 13.2922 1.60491 13.2113 1.54525 13.1516C1.48558 13.0919 1.40466 13.0584 1.32028 13.0584C1.2359 13.0584 1.15497 13.0919 1.09531 13.1516C1.03564 13.2113 1.00212 13.2922 1.00212 13.3766C1.00212 13.4609 1.03564 13.5419 1.09531 13.6015C1.15497 13.6612 1.2359 13.6947 1.32028 13.6947V13.6947Z" fill="#193550"/>
<path d="M1.30758 13.7859C1.39196 13.7859 1.47289 13.7524 1.53255 13.6927C1.59222 13.6331 1.62574 13.5522 1.62574 13.4678C1.62574 13.3834 1.59222 13.3025 1.53255 13.2428C1.47289 13.1831 1.39196 13.1496 1.30758 13.1496C1.2232 13.1496 1.14228 13.1831 1.08261 13.2428C1.02295 13.3025 0.989426 13.3834 0.989426 13.4678C0.989426 13.5522 1.02295 13.6331 1.08261 13.6927C1.14228 13.7524 1.2232 13.7859 1.30758 13.7859V13.7859Z" fill="#193550"/>
</svg>
