<svg width="99" height="101" viewBox="0 0 99 101" fill="none" xmlns="http://www.w3.org/2000/svg">
<path d="M52.1008 48.9916L54.4536 36.8069C55.3779 37.4794 56.134 38.4036 56.6383 39.4123C57.0582 40.2528 58.0668 40.5891 58.9074 40.2528C59.7479 39.8329 60.0841 38.8243 59.7479 37.9837C58.8237 35.9671 57.227 34.2861 55.2104 33.278L55.9665 29.2441C56.1347 28.3198 55.5466 27.4793 54.6217 27.3112C53.6974 27.1431 52.8569 27.7312 52.6888 28.6561L52.0164 32.1013C51.0928 32.0169 50.3367 31.9332 49.5798 31.9332C43.5293 31.9332 38.6555 36.4707 38.6555 42.0169C38.6555 47.1432 42.7732 51.3444 48.0675 52.0169L45.6303 64.5378C44.2855 63.7817 43.1932 62.6892 42.6052 61.3444C42.1852 60.5039 41.1766 60.1677 40.336 60.5039C39.4955 60.9238 39.1593 61.9325 39.4955 62.773C40.5879 65.1258 42.5207 66.8907 44.958 67.983L44.1175 72.3525C43.9494 73.2767 44.5374 74.1172 45.4623 74.2853H45.7986C46.5547 74.2853 47.3108 73.6973 47.4789 72.9405L48.3195 68.7385C48.7394 68.8222 49.16 68.8222 49.6643 68.8222C55.7149 68.8222 60.5886 64.2847 60.5886 58.7384C60.5049 54.0342 56.8909 50.084 52.1009 48.9917L52.1008 48.9916ZM42.017 42.0168C42.017 38.3191 45.3784 35.2939 49.5799 35.2939C50.1679 35.2939 50.6722 35.3776 51.2603 35.462L48.7394 48.6554C44.9579 48.3199 42.017 45.4627 42.017 42.0168L42.017 42.0168ZM49.5799 65.5471C49.328 65.5471 49.1599 65.5471 48.9074 65.4634L51.4283 52.27C54.7055 53.0262 57.1426 55.6315 57.1426 58.7404C57.1433 62.5218 53.7819 65.547 49.5798 65.547L49.5799 65.5471Z" fill="#6AAB72"/>
<path d="M88.9917 53.5309C88.0675 53.4472 87.2269 54.0352 87.1432 54.9595C84.7903 73.9505 68.6557 88.2362 49.5789 88.2362C28.7378 88.2362 11.7628 71.2614 11.7628 50.4202C11.7628 29.5791 28.7376 12.6041 49.5789 12.6041C63.1085 12.6041 75.7128 19.915 82.436 31.763C82.8559 32.6036 83.9483 32.8554 84.7051 32.3511C85.5456 31.9311 85.7975 30.8388 85.2932 30.082C78.0665 17.2255 64.3682 9.24268 49.5789 9.24268C26.8896 9.24268 8.4021 27.7302 8.4021 50.4195C8.4021 73.1087 26.8896 91.5962 49.5789 91.5962C70.3342 91.5962 87.9824 76.05 90.4199 55.4623C90.588 54.5367 89.9156 53.6968 88.9914 53.5287L88.9917 53.5309Z" fill="#6AAB72"/>
<path d="M49.5791 18.488C31.932 18.488 17.647 32.7738 17.647 50.4202C17.647 68.0666 31.9327 82.3523 49.5791 82.3523C67.2263 82.3523 81.5113 68.0666 81.5113 50.4202C81.5113 32.7738 67.2256 18.488 49.5791 18.488ZM49.5791 78.9916C33.8648 78.9916 21.0077 66.1345 21.0077 50.4202C21.0077 34.7059 33.8648 21.8488 49.5791 21.8488C65.2934 21.8488 78.1505 34.7059 78.1505 50.4202C78.1505 66.1345 65.2934 78.9916 49.5791 78.9916Z" fill="#6AAB72"/>
<path d="M5.04179 14.2863H8.40321V9.24452H13.445V5.88309H8.40321V0.841309H5.04179V5.88309H0V9.24452H5.04179V14.2863Z" fill="#6AAB72"/>
<path d="M93.2775 33.613H89.9161V38.6548H84.8743V42.0162H89.9161V47.0587H93.2775V42.0162H98.3193V38.6548H93.2775V33.613Z" fill="#6AAB72"/>
<path d="M93.2775 85.7148H89.9161V90.7566H84.8743V94.118H89.9161V99.1598H93.2775V94.118H98.3193V90.7566H93.2775V85.7148Z" fill="#6AAB72"/>
<path d="M91.5971 13.4457C95.2948 13.4457 98.32 10.4205 98.32 6.72286C98.32 3.02518 95.2948 0 91.5971 0C87.8994 0 84.8743 3.02518 84.8743 6.72286C84.8743 10.4205 87.8994 13.4457 91.5971 13.4457ZM91.5971 3.36196C93.4457 3.36196 94.9586 4.87425 94.9586 6.72339C94.9586 8.57196 93.4463 10.0848 91.5971 10.0848C89.7486 10.0848 88.2357 8.57253 88.2357 6.72339C88.2357 4.87428 89.748 3.36196 91.5971 3.36196Z" fill="#6AAB72"/>
<path d="M10.0847 86.5559C6.38699 86.5559 3.36182 89.5811 3.36182 93.2788C3.36182 96.9764 6.38699 100.002 10.0847 100.002C13.7823 100.002 16.8075 96.9764 16.8075 93.2788C16.8075 89.5811 13.7823 86.5559 10.0847 86.5559ZM10.0847 96.6397C8.2361 96.6397 6.72324 95.1274 6.72324 93.2782C6.72324 91.4297 8.23553 89.9168 10.0847 89.9168C11.9332 89.9168 13.4461 91.4291 13.4461 93.2782C13.4461 95.1273 11.9338 96.6397 10.0847 96.6397Z" fill="#6AAB72"/>
</svg>
