<svg width="15" height="21" viewBox="0 0 15 21" fill="none" xmlns="http://www.w3.org/2000/svg">
<path fill-rule="evenodd" clip-rule="evenodd" d="M15 20.3489C15 19.9892 14.7085 19.6977 14.3489 19.6977H7.90388V14.0822C8.99977 14.0713 11.1453 13.8573 12.5955 12.4602C14.5716 10.5575 14.3802 7.29836 14.3711 7.16033C14.35 6.84192 14.0992 6.58529 13.7792 6.55486L13.7786 6.55481C13.6684 6.54516 11.8053 6.38223 10.048 7.10038C10.2462 6.53987 10.3753 5.9349 10.3693 5.29663C10.3437 2.44776 7.72486 0.244358 7.61353 0.151682C7.36497 -0.0536228 7.00562 -0.0499949 6.76301 0.159404C6.65269 0.253882 4.0732 2.50316 4.09887 5.35203C4.1039 5.903 4.20736 6.42853 4.36941 6.91996C2.71554 6.27587 1.03413 6.36989 0.936634 6.37625C0.615739 6.39715 0.357106 6.64651 0.326438 6.96447C0.312705 7.10165 0.0234023 10.3538 1.94093 12.3138C3.35409 13.7583 5.49909 14.0335 6.59093 14.0757V19.6977H0.656438C0.293426 19.6977 0 19.9893 0 20.349C0 20.7083 0.293884 20.9999 0.656895 20.9999L0.656473 21H14.3489C14.7085 21 15 20.7085 15 20.3489V20.3489ZM7.92304 12.7792C8.833 12.7642 10.5794 12.5866 11.6812 11.5251C12.7891 10.4591 13.0189 8.73664 13.0596 7.83683C12.1492 7.85183 10.4027 8.0294 9.30046 9.09091C8.19357 10.1574 7.96378 11.8785 7.92304 12.7792ZM9.05729 5.30819C9.04264 3.67526 7.86025 2.23496 7.20198 1.55954C6.55613 2.24862 5.39695 3.71445 5.41206 5.34098C5.42624 6.97391 6.60958 8.41421 7.26784 9.08964C7.91335 8.40056 9.07194 6.93472 9.05729 5.30819ZM1.61823 7.67799C1.63429 8.58091 1.81324 10.3133 2.88304 11.4071C3.94874 12.4972 5.67955 12.7289 6.5905 12.7716V12.5599C6.55206 11.6189 6.3282 10.0604 5.3353 9.04475C4.26046 7.94553 2.52598 7.71841 1.61823 7.67799Z" fill="#9EA4A9"/>
</svg>
