<svg width="86" height="110" viewBox="0 0 86 110" fill="none" xmlns="http://www.w3.org/2000/svg">
<path d="M83.8828 64.9771C83.0131 64.2755 81.9568 63.8437 80.8441 63.7359C81.1751 62.3519 81.1094 60.9029 80.6554 59.5539C80.2014 58.2049 79.3768 57.0121 78.2763 56.1095C76.9618 54.9356 75.2995 54.2234 73.5433 54.0812C74.3359 52.4465 74.5315 50.5871 74.0966 48.8232C73.6625 47.06 72.6247 45.504 71.1635 44.4256C69.4661 43.2073 67.3767 42.6617 65.3001 42.8932C69.4171 34.5645 77.4892 18.1984 79.74 13.2504C80.5363 11.5385 82.9498 6.2147 78.7816 2.97886V2.97962C77.3333 1.84776 75.4716 1.38692 73.6626 1.71248C71.0947 2.13205 68.7835 3.84408 67.0205 6.53191C64.8973 9.76775 62.1498 14.4152 59.2313 19.3714C55.2939 26.0051 50.8345 33.5291 47.3846 38.4593C46.9054 39.1357 44.534 42.833 42.634 46.0515C41.3417 40.9157 39.9378 35.3862 39.3385 33.4855C38.585 31.0972 34.4336 19.2505 26.2934 19.91H26.2942C24.3606 19.9497 22.5692 20.9349 21.5008 22.5468C19.5061 25.6879 20.7304 30.7296 22.1084 34.4019C23.2043 37.3206 23.6063 51.0932 23.6063 59.0968C23.6063 60.0727 22.9215 65.6878 22.2535 71.0803C21.6628 75.8737 21.0124 81.1638 20.6272 84.9209L16.0823 82.5074C15.2653 82.0626 14.2435 82.3515 13.7795 83.1577L0.195575 106.696C-0.230119 107.509 0.0610661 108.513 0.855891 108.972C1.64995 109.431 2.66488 109.182 3.15712 108.408L15.9193 86.3077L58.7176 109.359V109.358C58.9675 109.494 59.2472 109.564 59.5307 109.564C60.3233 109.585 61.0256 109.058 61.2289 108.292C61.433 107.527 61.0845 106.722 60.3867 106.346L58.8291 105.49C61.5254 103.153 66.3532 98.7872 68.7928 95.3893C71.0488 91.9944 72.867 88.3268 74.2021 84.4758C74.4589 84.2618 74.7157 84.0478 74.9557 83.817C77.8744 80.9922 83.5153 74.7782 85.0216 72.441C85.821 71.287 86.1489 69.87 85.9372 68.4822C85.7255 67.0945 84.9903 65.8402 83.8829 64.9766L83.8828 64.9771ZM72.704 57.4959C73.9428 57.4072 75.1611 57.8451 76.059 58.7034C76.9302 59.3996 77.4866 60.4161 77.6043 61.5258C77.722 62.6356 77.3903 63.7453 76.6841 64.6097C75.9306 65.4656 73.4314 68.256 70.5043 71.4574C70.3759 71.5858 70.256 71.7226 70.1276 71.8594C68.3644 73.7509 66.8405 75.3856 66.0273 76.3617C62.9543 79.7855 60.1555 82.8157 58.786 84.3565C58.2128 85.0726 57.3713 85.5212 56.4574 85.5976C55.6534 85.6244 54.8746 85.3141 54.3091 84.7417C53.804 84.2541 52.7516 83.2353 54.7715 80.3595C55.1139 79.8627 55.8247 78.8784 56.7662 77.5776L56.8349 77.5004C58.1961 75.6685 61.0635 71.7227 64.0082 67.6569L67.9801 62.2384L70.3768 58.9597L70.376 58.9605C70.9049 58.1595 71.7532 57.6261 72.7039 57.4961L72.704 57.4959ZM69.1602 47.2243C70.0696 47.932 70.6726 48.9622 70.8431 50.1017C71.0135 51.2412 70.7391 52.4021 70.0765 53.3444C69.1518 54.6451 65.1203 60.2434 61.2342 65.6106C58.6663 69.1628 55.8927 72.903 54.0272 75.4801C52.5981 77.3633 51.0146 77.7653 49.3195 76.6785C48.6859 76.2765 47.0085 75.2065 49.0795 71.6116C49.3959 71.0812 50.0379 69.9508 50.8855 68.4704C54.3009 62.4863 60.6611 51.41 62.7322 47.9351C63.2947 47.0738 64.1912 46.4876 65.2062 46.3172C66.5895 46.0566 68.0187 46.3752 69.1605 47.1991L69.1602 47.2243ZM65.9243 93.4464C63.3564 96.9818 57.6987 101.946 55.5076 103.795L23.8887 86.7188C24.2143 83.0298 24.9847 76.9524 25.6526 71.5255C26.5086 64.5494 27.0306 60.2099 27.0306 59.0881C27.0306 56.9054 27.0306 37.6469 25.3186 33.1861C23.7947 29.1463 23.4523 25.8508 24.3855 24.3779V24.3787C24.8876 23.6779 25.7069 23.2767 26.5681 23.3087C31.1215 22.932 34.7081 30.1565 36.0777 34.5052C37.25 38.237 41.8386 57.1613 41.8814 57.3511V57.3503C42.1038 58.2697 43.0293 58.8353 43.9487 58.6129C44.3896 58.5059 44.771 58.2285 45.0079 57.841C45.2448 57.4527 45.3174 56.9873 45.2112 56.5456C45.1516 56.2804 44.586 53.9777 43.8249 50.8702C45.3916 47.8576 49.5681 41.2918 50.185 40.4106C53.7112 35.3771 58.0171 28.1191 62.1685 21.1086C65.062 16.2213 67.8011 11.6157 69.8722 8.44035H69.8715C70.8168 6.7949 72.3881 5.60265 74.2286 5.13642C75.0769 4.9744 75.9543 5.17922 76.6421 5.7012C77.3009 6.21478 78.6704 7.27633 76.5825 11.8473C73.6033 18.3611 60.3704 45.0588 59.7711 46.2659C57.5969 49.8013 51.3222 60.7745 47.916 66.766L46.1184 69.8988C43.7646 73.9814 44.2613 77.5001 47.4712 79.5629H47.4704C48.4341 80.1964 49.54 80.5786 50.6894 80.6756C50.185 81.7479 50.0322 82.9516 50.2538 84.1155C50.4754 85.2794 51.0593 86.3434 51.9214 87.1549C53.0961 88.3372 54.6894 89.0075 56.3556 89.0213H56.578C58.4229 88.9242 60.147 88.0736 61.3461 86.6674C62.0653 85.8114 63.1949 84.6047 64.556 83.1068C64.8869 83.8833 65.3867 84.5764 66.0195 85.1351C66.9259 85.9857 68.1235 86.4572 69.3661 86.4534H69.7597C68.7249 88.899 67.4403 91.2308 65.9254 93.4127L65.9243 93.4464ZM82.128 70.6435C80.9128 72.5358 75.5714 78.4847 72.5756 81.3179C72.464 81.4295 69.8534 83.8858 68.2958 82.5331C66.7979 81.1803 67.9962 79.3401 68.6122 78.5788L69.5797 77.5776L73.0036 73.777C74.7155 71.9198 76.6247 69.8908 77.9514 68.3332C78.4986 67.6087 79.3385 67.1639 80.245 67.1173C80.7899 67.1242 81.3157 67.3175 81.7345 67.6653C82.6203 68.3898 82.7922 69.6775 82.1281 70.61L82.128 70.6435Z" fill="#6AAB72"/>
<path d="M42.9236 15.5097C43.3776 15.5097 43.8132 15.3293 44.1342 15.0083C44.4552 14.6874 44.6355 14.2517 44.6355 13.7978V1.71193C44.6355 0.766553 43.869 0 42.9236 0C41.9782 0 41.2117 0.766553 41.2117 1.71193V13.7978C41.2117 14.2517 41.392 14.6874 41.713 15.0083C42.034 15.3293 42.4696 15.5097 42.9236 15.5097Z" fill="#6AAB72"/>
<path d="M49.7557 18.7197C50.2341 18.7189 50.6904 18.5171 51.0137 18.1633L59.3593 9.03038C59.9974 8.32115 59.9401 7.22904 59.2309 6.59083C58.5217 5.95263 57.4295 6.00999 56.7913 6.71923L48.4884 15.8613C47.8548 16.5591 47.9045 17.6382 48.6 18.2749C48.9156 18.5622 49.3283 18.7212 49.7555 18.7196L49.7557 18.7197Z" fill="#6AAB72"/>
<path d="M34.8278 18.1632C35.1511 18.5171 35.6073 18.7188 36.0858 18.7196C36.513 18.7211 36.9257 18.5622 37.2413 18.2748C37.9368 17.6382 37.9872 16.5591 37.3529 15.8613L29.0073 6.7192C28.3691 6.00998 27.277 5.95265 26.5677 6.59081C25.8585 7.22897 25.8012 8.32109 26.4393 9.03036L34.8278 18.1632Z" fill="#6AAB72"/>
</svg>
