<svg width="101" height="118" viewBox="0 0 101 118" fill="none" xmlns="http://www.w3.org/2000/svg">
<path d="M37.3667 106.2H45.2334V110.133H37.3667V106.2Z" fill="#6AAB72"/>
<path d="M80.6333 39.3333C78.47 39.3333 76.11 39.7267 74.1433 40.5133L75.52 44.25C83.78 41.3 92.63 45.6267 95.58 53.8867C98.53 62.1467 94.2033 70.9967 85.9433 73.9467C77.6833 76.8967 68.8333 72.57 65.8833 64.31C65.2933 62.54 64.9 60.77 64.9 59H60.9667C60.9667 69.03 68.6367 77.4867 78.6667 78.47V98.3333H3.93333V5.9C3.93333 4.72 4.72 3.93333 5.9 3.93333H76.7C77.88 3.93333 78.6667 4.72 78.6667 5.9V19.6667H82.6V5.9C82.6 2.55667 80.0433 0 76.7 0H5.9C2.55667 0 0 2.55667 0 5.9V112.1C0 115.443 2.55667 118 5.9 118H76.7C80.0433 118 82.6 115.443 82.6 112.1V78.4711C93.4167 77.2911 101.283 67.6545 100.103 57.0345C99.12 47.0045 90.6633 39.3345 80.6333 39.3345V39.3333ZM76.7 114.067H5.9C4.72 114.067 3.93333 113.28 3.93333 112.1V102.267H78.6667V112.1C78.6667 113.28 77.88 114.067 76.7 114.067Z" fill="#6AAB72"/>
<path d="M71.9801 45.8244L69.8167 42.4811C68.4401 43.4644 67.2601 44.4477 66.0801 45.6277L69.0301 48.1844C69.8167 47.5944 70.8001 46.6111 71.9801 45.8244Z" fill="#6AAB72"/>
<path d="M66.4732 51.92L62.9332 50.3467C62.1465 51.7233 61.7532 53.2967 61.3599 54.6733L65.2932 55.46C65.4899 54.28 66.0799 53.1 66.4732 51.92Z" fill="#6AAB72"/>
<path d="M78.6667 47.2V59.7866L87.1234 68.2433L89.8767 65.49L82.6001 58.2133V47.2H78.6667Z" fill="#6AAB72"/>
<path d="M64.8999 39.3334H60.9666V9.83337H49.1666V39.3334H43.2666V13.7667H31.4666V39.3334H25.5666V19.6667H13.7666V39.3334H9.83325V43.2667H64.8999V39.3334ZM53.0999 13.7667H57.0333V39.3334H53.0999V13.7667ZM35.3999 17.7H39.3333V39.3334H35.3999V17.7ZM17.6999 23.6H21.6333V39.3334H17.6999V23.6Z" fill="#6AAB72"/>
<path d="M9.83325 49.1666H51.1333V53.1H9.83325V49.1666Z" fill="#6AAB72"/>
<path d="M9.83325 59H33.4333V62.9333H9.83325V59Z" fill="#6AAB72"/>
<path d="M39.3333 59H51.1333V62.9333H39.3333V59Z" fill="#6AAB72"/>
<path d="M9.83325 68.8334H33.4333V72.7667H9.83325V68.8334Z" fill="#6AAB72"/>
<path d="M39.3333 68.8334H51.1333V72.7667H39.3333V68.8334Z" fill="#6AAB72"/>
<path d="M9.83325 78.6666H33.4333V82.6H9.83325V78.6666Z" fill="#6AAB72"/>
<path d="M39.3333 78.6666H51.1333V82.6H39.3333V78.6666Z" fill="#6AAB72"/>
<path d="M57.0332 78.6666H68.8332V82.6H57.0332V78.6666Z" fill="#6AAB72"/>
<path d="M9.83325 88.5H33.4333V92.4333H9.83325V88.5Z" fill="#6AAB72"/>
<path d="M39.3333 88.5H51.1333V92.4333H39.3333V88.5Z" fill="#6AAB72"/>
<path d="M57.0332 88.5H72.7665V92.4333H57.0332V88.5Z" fill="#6AAB72"/>
<path d="M91.8443 28.1223C85.551 22.2223 75.7176 22.2223 69.4243 28.1223L72.1776 30.8756C76.8976 26.3523 84.371 26.3523 89.091 30.8756L91.8443 28.1223Z" fill="#6AAB72"/>
<path d="M75.1267 34.22L78.0767 36.7766C79.06 35.4 81.0267 35.2033 82.2067 36.1866L82.7967 36.7766L85.7467 34.22C83.3867 31.27 79.06 30.68 76.11 33.04C75.9134 33.2366 75.52 33.63 75.1267 34.22Z" fill="#6AAB72"/>
</svg>
