<svg width="154" height="118" viewBox="0 0 154 118" fill="none" xmlns="http://www.w3.org/2000/svg">
<path d="M26.0239 65.1281C26.0274 68.2974 27.2563 71.2786 29.4795 73.5173C31.7061 75.7602 34.6675 76.9986 37.8214 76.9986C40.9718 76.9986 43.9368 75.7603 46.1599 73.5173C48.383 71.2786 49.6119 68.2974 49.618 65.1281C49.612 61.9588 48.3831 58.9776 46.1599 56.738C43.9368 54.4951 40.9718 53.2567 37.8214 53.2567C34.6675 53.2567 31.7061 54.495 29.4795 56.738C27.2555 58.9776 26.0266 61.9586 26.0239 65.1281ZM37.8205 56.4656C42.5556 56.4751 46.4091 60.3603 46.4091 65.1281C46.4091 69.895 42.5556 73.7811 37.8205 73.7906C33.0855 73.7811 29.2284 69.895 29.2284 65.1281C29.2284 60.3603 33.0853 56.4751 37.8205 56.4656V56.4656Z" fill="url(#paint0_linear_1471_760)"/>
<path d="M31.1918 44.6109C31.349 44.6109 31.5063 44.5886 31.6601 44.5404C32.5075 44.2835 32.9853 43.3889 32.7283 42.5415C32.5229 41.8618 31.9068 41.4029 31.1943 41.4029C31.0371 41.4029 30.8798 41.4252 30.7294 41.4733C30.3186 41.5954 29.9818 41.8712 29.7798 42.2493C29.5779 42.6283 29.5332 43.0614 29.6578 43.4714C29.8666 44.152 30.4828 44.6109 31.1918 44.6109V44.6109Z" fill="url(#paint1_linear_1471_760)"/>
<path d="M55.1739 47.6645C52.9249 45.3965 50.3005 43.6126 47.3743 42.3682C44.3457 41.0783 41.1309 40.4243 37.8197 40.4243C36.9345 40.4243 36.2152 41.1428 36.2152 42.0288C36.2152 42.914 36.9336 43.6333 37.8197 43.6333H37.8231C43.5147 43.6367 48.8695 45.8693 52.899 49.9248C56.9286 53.9862 59.1484 59.3857 59.1484 65.1288C59.1484 70.8712 56.9286 76.2707 52.899 80.3328C48.866 84.3882 43.5112 86.6243 37.8205 86.6243C32.1253 86.6243 26.7714 84.3882 22.7419 80.3328C18.7088 76.2696 16.4882 70.8701 16.4882 65.1279C16.4882 58.8751 19.1867 52.9395 23.8901 48.8462C24.2141 48.5634 24.41 48.1758 24.4383 47.7487C24.4701 47.3191 24.3292 46.9083 24.0499 46.5843C23.7448 46.2311 23.3023 46.0326 22.8373 46.0326C22.4523 46.0326 22.0768 46.1709 21.7846 46.4236C16.3792 51.1234 13.2803 57.9417 13.2803 65.128C13.2803 68.4581 13.9282 71.6919 15.2087 74.74C16.4436 77.6851 18.2113 80.326 20.4638 82.5905C22.7129 84.8584 25.3373 86.6424 28.2635 87.8876C31.2885 89.1775 34.5034 89.8324 37.8146 89.8324H37.824C41.1353 89.8324 44.3501 89.1775 47.3786 87.8876C50.3013 86.6424 52.9259 84.8591 55.175 82.5905C57.4274 80.3251 59.1951 77.6851 60.4301 74.74C61.7106 71.6919 62.3586 68.4579 62.3586 65.128C62.3586 61.798 61.7106 58.564 60.4301 55.5159C59.1944 52.5708 57.4267 49.9308 55.1741 47.6646L55.1739 47.6645Z" fill="url(#paint2_linear_1471_760)"/>
<path d="M152.062 59.1463C150.966 57.0529 149.426 55.1931 147.58 53.7211V27.5719C147.94 27.5315 148.272 27.3794 148.53 27.1216C148.835 26.8165 149.002 26.4126 149.002 25.9855V18.2855C149.005 16.8254 148.569 15.3628 147.741 14.06C146.84 12.6454 145.559 11.42 143.821 10.3131C142.64 9.56892 141.684 9.16759 141.504 9.09713L141.5 9.09369C141.311 9.01978 141.112 8.98111 140.91 8.98111L85.7737 8.98197C85.0097 8.98197 84.3626 9.50533 84.2045 10.2556L83.0546 15.716L72.694 7.36719L74.8742 3.70705C75.0925 3.33837 75.1569 2.90783 75.0504 2.49104C74.9447 2.07683 74.6843 1.72705 74.3156 1.50619C74.069 1.35838 73.7862 1.2819 73.4975 1.2819C72.9363 1.2819 72.4069 1.58354 72.1182 2.06479L64.4732 14.8978C64.0211 15.6584 64.2712 16.6432 65.0318 17.0987C65.2784 17.2465 65.5646 17.323 65.8499 17.323C66.4145 17.323 66.9439 17.0214 67.2292 16.5401L71.0372 10.148L82.6836 19.5332C82.9663 19.7644 83.3255 19.889 83.6882 19.889C84.1789 19.889 84.6343 19.6707 84.9394 19.2926C85.1706 19.0064 85.2857 18.655 85.2875 18.2931C85.645 18.0671 85.9157 17.7062 86.0076 17.2714V17.2653L87.0758 12.1899H140.578C141.059 12.4117 142.291 13.0244 143.423 13.9834C144.142 14.5902 144.726 15.257 145.117 15.9179C145.569 16.6879 145.791 17.4639 145.794 18.2855V24.3811H92.5387C91.6535 24.3811 90.9342 25.0995 90.9342 25.9855C90.9342 26.8707 91.6527 27.59 92.5387 27.59H128.333V52.5204C128.281 52.5496 128.23 52.5814 128.179 52.6132H73.5001C73.2285 52.6132 72.9759 52.6871 72.7516 52.8066C71.9953 50.8171 71.0835 48.8835 70.0152 47.0272C69.7024 46.484 69.3732 45.9512 69.0364 45.4244C72.6466 43.9678 75.7473 42.2078 78.248 40.1935C80.2985 38.5409 81.9466 36.7226 83.1439 34.7872C85.2932 31.3187 85.2966 28.6624 85.2966 28.5498C85.2966 27.8176 84.8008 27.2074 84.1313 27.0149C84.3685 26.7348 84.5163 26.3781 84.5163 25.9837C84.5163 25.0985 83.7979 24.3792 82.9118 24.3792C82.0293 24.3792 81.3074 25.0976 81.3074 25.9837C81.3074 26.7159 81.8041 27.3269 82.4736 27.5194C82.2389 27.7952 82.0903 28.1467 82.0877 28.5343V28.5403C82.0782 28.7586 81.9433 30.7507 80.2495 33.3563C77.8526 37.0328 73.6658 40.0938 67.8014 42.4615C67.5849 42.5491 67.3976 42.6815 67.242 42.8456C66.1111 41.3512 64.8787 39.9342 63.5475 38.6115C60.9522 36.0351 57.9969 33.8153 54.77 32.0183C53.4654 31.2913 52.1034 30.6356 50.7136 30.0547L45.9854 6.42004C45.8891 5.93879 45.5712 5.51855 45.1286 5.30029L34.859 0.167247C34.3717 -0.0793948 33.765 -0.0510357 33.3001 0.237714C32.8223 0.529896 32.5396 1.03951 32.5396 1.60154V27.0467C26.2583 27.479 20.1225 29.3851 14.7015 32.6103C11.7306 34.3781 9.00043 36.5248 6.58813 38.9921C4.09861 41.5333 1.95185 44.414 0.203734 47.549C-0.0050939 47.9245 -0.0557995 48.3577 0.0627959 48.7685C0.181389 49.1827 0.451228 49.5221 0.82679 49.731C1.06397 49.8659 1.33382 49.9363 1.60625 49.9363C2.18718 49.9363 2.72601 49.6192 3.00789 49.1122C9.29593 37.8227 21.2439 30.5651 34.1929 30.1768C34.5616 30.1639 34.9311 30.1605 35.2903 30.1605C39.9068 30.1605 44.4271 31.0173 48.7233 32.7041C50.2667 33.3134 51.7776 34.0258 53.2117 34.825C64.9027 41.3313 72.1696 53.696 72.1696 67.0946C72.1696 73.3312 70.5557 79.5264 67.5014 85.0066C67.0717 85.78 67.351 86.758 68.1236 87.1911C68.3607 87.3226 68.6306 87.3931 68.903 87.3931C69.484 87.3931 70.0228 87.076 70.3047 86.569L70.3081 86.5655C71.9925 83.5405 73.279 80.3186 74.1324 76.992C74.8439 74.2154 75.253 71.3622 75.3535 68.4927C75.5641 68.595 75.7978 68.6569 76.0479 68.6569H120.29C120.453 70.3851 120.873 72.0651 121.545 73.6678C122.395 75.6925 123.614 77.511 125.163 79.0708C126.713 80.6332 128.519 81.8622 130.528 82.7188C132.61 83.604 134.824 84.0569 137.105 84.0569C139.389 84.0569 141.602 83.6048 143.685 82.7188C145.693 81.8621 147.5 80.6331 149.049 79.0708C150.598 77.5119 151.814 75.6927 152.665 73.6678C153.548 71.5727 153.997 69.3459 154 67.0524C153.999 64.3033 153.331 61.5696 152.065 59.1469L152.062 59.1463ZM42.9927 7.82031L47.183 28.7641C47.1727 28.7607 47.1624 28.7581 47.1529 28.7555C46.7095 28.6171 46.2652 28.4874 45.8183 28.3645C45.7908 28.3568 45.7625 28.3499 45.735 28.3422C42.4856 27.4579 39.1444 26.9912 35.7465 26.9543V4.19746L42.9927 7.82031ZM144.371 27.5902V51.7022C143.815 51.434 143.246 51.1977 142.665 50.9932C142.636 50.9829 142.606 50.9726 142.576 50.9631C142.326 50.8763 142.073 50.7955 141.818 50.7208C141.78 50.7096 141.743 50.6976 141.705 50.6864C141.443 50.6116 141.179 50.5437 140.913 50.4827C140.832 50.4638 140.751 50.4475 140.67 50.4303C140.479 50.389 140.286 50.3504 140.093 50.316C140.001 50.2997 139.909 50.2825 139.817 50.267C139.561 50.2249 139.304 50.1888 139.046 50.1596C138.973 50.151 138.899 50.1458 138.826 50.1381C138.616 50.1166 138.407 50.0994 138.195 50.0857C138.109 50.0805 138.024 50.0745 137.938 50.0702C137.663 50.0565 137.389 50.0479 137.113 50.0479H137.106H137.096C136.783 50.0479 136.47 50.0599 136.158 50.0771C136.093 50.0805 136.029 50.0848 135.964 50.0891C135.315 50.1321 134.67 50.2129 134.033 50.3306C134.021 50.3332 134.009 50.3358 133.996 50.3383C133.336 50.4621 132.685 50.6245 132.044 50.8273C132.02 50.8351 131.997 50.8428 131.973 50.8505C131.827 50.8978 131.68 50.9434 131.536 50.9941V35.4051L131.537 27.59L144.371 27.5902ZM75.3459 65.6128C75.223 62.2897 74.685 59.0007 73.7569 55.8219H124.418C124.37 55.8769 124.325 55.9336 124.278 55.9886C124.077 56.2241 123.883 56.463 123.696 56.7079C123.629 56.7964 123.562 56.8849 123.496 56.9743C123.353 57.1711 123.214 57.3705 123.079 57.5724C122.995 57.6962 122.913 57.8208 122.833 57.9471C122.747 58.0838 122.665 58.2213 122.582 58.3596C122.514 58.4748 122.448 58.5908 122.383 58.7077C122.273 58.9045 122.166 59.103 122.064 59.3041C121.99 59.4493 121.917 59.5945 121.847 59.7415C121.788 59.8678 121.73 59.9933 121.673 60.1213C121.656 60.1574 121.639 60.1927 121.624 60.2288C121.552 60.3929 121.485 60.5588 121.419 60.7246C121.371 60.8467 121.324 60.9687 121.278 61.0916C121.202 61.2961 121.13 61.5015 121.062 61.7095C121.031 61.804 121 61.8977 120.971 61.9922C120.885 62.2689 120.805 62.5474 120.734 62.8284C120.72 62.8825 120.709 62.9367 120.695 62.9908C120.631 63.2503 120.575 63.5125 120.523 63.7746C120.511 63.8382 120.498 63.9009 120.486 63.9645C120.43 64.2696 120.382 64.5764 120.342 64.8849C120.336 64.9304 120.332 64.976 120.327 65.0215C120.311 65.1625 120.292 65.3034 120.279 65.4443L76.0435 65.4469C75.7926 65.4469 75.558 65.5105 75.3465 65.6128L75.3459 65.6128ZM146.773 76.8112C144.187 79.4125 140.752 80.8469 137.101 80.8469C133.45 80.8469 130.014 79.4126 127.428 76.8112C124.842 74.2031 123.417 70.7346 123.415 67.0514C123.415 66.473 123.451 65.8989 123.52 65.3335C124.011 61.3735 126.184 57.8011 129.542 55.5529C129.908 55.3089 130.293 55.0751 130.69 54.8629C132.679 53.7981 134.839 53.2558 137.1 53.2558C139.962 53.2558 142.705 54.141 145.037 55.816L145.041 55.8194C148.641 58.4112 150.787 62.611 150.787 67.0515C150.787 70.7383 149.363 74.2033 146.773 76.8114L146.773 76.8112Z" fill="url(#paint3_linear_1471_760)"/>
<path d="M141.331 61.1065C141.331 61.1065 141.327 61.1065 141.327 61.1031C140.089 60.2145 138.632 59.7427 137.108 59.7427H137.099C135.912 59.7427 134.731 60.0374 133.689 60.596C133.478 60.7112 133.271 60.8332 133.082 60.9621C131.048 62.3225 129.835 64.5972 129.835 67.0517C129.839 69.0025 130.593 70.8373 131.962 72.2173C133.332 73.6001 135.158 74.3606 137.102 74.3606C139.046 74.3606 140.872 73.6001 142.245 72.2173C143.611 70.838 144.368 69.0025 144.372 67.0517C144.372 64.6971 143.233 62.4731 141.33 61.1067L141.331 61.1065ZM137.102 71.1517C134.863 71.1483 133.044 69.3101 133.041 67.0516C133.041 65.6749 133.724 64.3953 134.864 63.6286C134.973 63.5573 135.088 63.4877 135.207 63.4266C135.794 63.1121 136.432 62.9514 137.102 62.9488C137.95 62.9523 138.761 63.2118 139.454 63.7094C140.542 64.4922 141.164 65.7109 141.164 67.0523C141.164 69.3099 139.341 71.148 137.102 71.1515L137.102 71.1517Z" fill="url(#paint4_linear_1471_760)"/>
<defs>
<linearGradient id="paint0_linear_1471_760" x1="34.5178" y1="47.1608" x2="39.6801" y2="84.0467" gradientUnits="userSpaceOnUse">
<stop stop-color="#69AA72"/>
<stop offset="1" stop-color="#69AA72"/>
</linearGradient>
<linearGradient id="paint1_linear_1471_760" x1="30.7438" y1="40.5792" x2="31.4369" y2="45.5645" gradientUnits="userSpaceOnUse">
<stop stop-color="#69AA72"/>
<stop offset="1" stop-color="#69AA72"/>
</linearGradient>
<linearGradient id="paint2_linear_1471_760" x1="30.9485" y1="27.7385" x2="41.6962" y2="104.498" gradientUnits="userSpaceOnUse">
<stop stop-color="#69AA72"/>
<stop offset="1" stop-color="#69AA72"/>
</linearGradient>
<linearGradient id="paint3_linear_1471_760" x1="55.44" y1="-22.4388" x2="66.2987" y2="115.139" gradientUnits="userSpaceOnUse">
<stop stop-color="#69AA72"/>
<stop offset="1" stop-color="#69AA72"/>
</linearGradient>
<linearGradient id="paint4_linear_1471_760" x1="135.069" y1="55.9894" x2="138.245" y2="78.7007" gradientUnits="userSpaceOnUse">
<stop stop-color="#69AA72"/>
<stop offset="1" stop-color="#69AA72"/>
</linearGradient>
</defs>
</svg>
